<svg width="60" height="60" viewBox="0 0 60 60" fill="none" xmlns="http://www.w3.org/2000/svg">
<rect y="0.360352" width="59.04" height="59.04" rx="29.52" fill="#FF5233"/>
<path d="M17.0455 26.5369C17.1258 26.2341 17.2831 25.9573 17.5021 25.7334C17.7211 25.5094 17.9943 25.346 18.2952 25.2589L36.9739 19.7417C37.2888 19.6485 37.623 19.6411 37.9417 19.7202C38.2605 19.7993 38.5524 19.9621 38.7872 20.1917C39.0201 20.4182 39.1884 20.7027 39.2749 21.0158C39.3613 21.329 39.3628 21.6595 39.2792 21.9734L34.0187 41.6058C33.9342 41.9195 33.7676 42.205 33.5362 42.4329C33.3047 42.6609 33.0167 42.823 32.7018 42.9028C32.3836 42.9842 32.0495 42.9793 31.7338 42.8884C31.4182 42.7975 31.1325 42.6241 30.9064 42.3859L17.4888 28.2685C17.2718 28.0426 17.1169 27.7645 17.0392 27.461C16.9615 27.1576 16.9637 26.8392 17.0455 26.5369Z" fill="white"/>
</svg>
